<?xml version="1.0" encoding="UTF-8" standalone="no"?>
<!-- Created with Inkscape (http://www.inkscape.org/) -->

<svg
   version="1.1"
   id="svg2"
   width="707.30664"
   height="495.20001"
   viewBox="0 0 707.30664 495.20001"
   sodipodi:docname="UNOLogo-stacked.eps"
   xmlns:inkscape="http://www.inkscape.org/namespaces/inkscape"
   xmlns:sodipodi="http://sodipodi.sourceforge.net/DTD/sodipodi-0.dtd"
   xmlns="http://www.w3.org/2000/svg"
   xmlns:svg="http://www.w3.org/2000/svg">
  <defs
     id="defs6" />
  <sodipodi:namedview
     id="namedview4"
     pagecolor="#ffffff"
     bordercolor="#000000"
     borderopacity="0.25"
     inkscape:showpageshadow="2"
     inkscape:pageopacity="0.0"
     inkscape:pagecheckerboard="0"
     inkscape:deskcolor="#d1d1d1" />
  <g
     id="g8"
     inkscape:groupmode="layer"
     inkscape:label="ink_ext_XXXXXX"
     transform="matrix(1.3333333,0,0,-1.3333333,0,495.2)">
    <g
       id="g10"
       transform="scale(0.1)">
      <path
         d="m 3628.5,3092.8 c -116.93,260.84 -394.15,493.11 -663.31,571.29 -425.16,132.64 -880.08,-4.69 -1165.97,-344.02 -257.63,-299 -330.95,-752.48 -173.97,-1121.9 109.96,-286.49 403.35,-551.49 698.05,-630.26 448.19,-133.28 916.5,28.61 1197.74,398.45 237.21,299.67 284.17,781.78 107.46,1126.44 M 2520.27,1841.05 c 9.9,14.27 28.99,14.8 43.23,10.11 38.64,-14.23 52.46,-52.18 61.08,-86.28 6.14,9.02 0.57,28.01 -2.39,40.65 -27.13,56.65 2.01,114.85 17.12,167.52 23.57,-64.33 35.9,-143.06 8.32,-208.91 l 1.33,-2.46 c 8,35.89 32.42,76.06 70.5,86.02 17.76,4.34 33.29,-2.92 41.32,-18 6.88,-17.64 3.6,-38.19 -7.5,-52.53 -6.24,-6.51 -13.81,-8.02 -21.45,-9.44 -1.56,11.39 9.55,23.14 -0.88,31.82 -9.23,11.24 -26.96,4.36 -37.03,-0.96 -15.04,-9.37 -24.8,-24.9 -30.83,-40.37 28.33,-17.69 -25.93,-35.69 24.38,-51.68 14.2,-3.42 22.86,4.47 30.26,14.9 l -0.03,1.23 5.14,0.15 c 4.16,-12.62 0.74,-26.78 -9.27,-35.98 -9.93,-9.16 -25.36,-8.31 -38.29,-2.32 -7.78,4.9 -14.34,13.71 -20.96,19.83 -7.33,-12.93 0.95,-34.34 -4.96,-49.81 l -10.89,-27.09 c -15.78,20.01 -17.93,50.51 -17.37,77.33 -11.1,-14.37 -29.77,-32.69 -52.99,-25.68 -10.28,2.28 -18.17,12.25 -21.03,22.4 -1.48,8.88 -0.46,17.86 3.13,25.64 9.02,-3.66 13.33,-20.07 24.88,-21.09 12.79,-0.92 24.2,1.97 30.3,13.59 -17.16,44.08 29.27,28.65 -3.17,67.5 -13.15,14.95 -33.86,25.9 -52.88,17.76 -11.28,-6.69 -15.89,-23.43 -6.66,-33.4 2.53,-1.19 2.57,-2.5 2.64,-5.04 -12.79,-0.31 -29.77,13.21 -33.96,27.17 -2.93,16.48 -2.26,34.34 8.91,47.42 m -482.23,543.17 13.74,0.21 101.82,-0.04 c 2.29,-60.91 1.62,-131.05 4.44,-187.1 7.01,-24.06 21.66,-45.27 44.95,-54.92 23.29,-12.12 52.56,-8.78 75.35,-0.46 90.65,48.3 50.63,161.42 61.2,241.99 40.9,0.18 75.71,-1.13 115.24,-0.07 0.67,-18.88 -1.8,-39.52 6.27,-55.91 41.4,29.18 81.56,58.31 133.77,62.29 63.69,5.57 121.97,-20.96 154.1,-76.2 l 6.47,-3.67 c 90.65,98.12 248.69,110.03 367.41,66.1 42.64,-16.7 95.97,-52.29 110.03,-99.07 20.43,-46.61 3.91,-96.81 -21.95,-134.55 -84.41,-88.95 -222.01,-102.94 -338.95,-76.73 -36.18,11.77 -72.32,28.65 -102.48,57.18 -11.24,-10.53 -6.79,-32.09 -7.57,-49.95 l 0.6,-13.11 -114.96,0.74 c -5.22,74.55 28.26,202.01 -51.65,242.56 -21.91,9.62 -47.45,7.64 -70.21,0.63 -95.97,-44.67 -57.07,-159.55 -65.07,-243.93 -37.09,0.39 -77.01,0.39 -116.79,0.18 1.52,22.51 -1.69,38.43 -0.03,61.79 -22.65,-10.85 -46.15,-33.33 -70.11,-44.21 -41.57,-22.8 -104.03,-27.06 -149.16,-9.13 -124.05,42.74 -77.68,267.47 -86.46,315.38 m 1643.34,267.46 c -2.37,-7.71 -5.88,-16.69 -13.46,-22.01 -37.38,11.73 -80.67,6.73 -118.87,0.59 -27.09,9.48 -51.72,24.1 -81.2,25.83 -15.68,13.63 -4.86,38.15 -9.2,57.21 -28.6,19.63 -88.03,-4.96 -91.95,47.21 -10.57,12.51 -28.36,6.91 -42.48,10.33 -33.61,13.14 -70.28,1.93 -106.22,6.05 -26.96,6.98 -55.14,7.44 -84.45,7.93 13.74,10.61 43.83,27.97 38.19,49.5 -5.28,7.5 -9.41,17.61 -8.38,26.52 21.38,13.36 43.79,33.09 41.78,59.82 45.87,6.35 26.91,-50.23 58.09,-67.25 13.07,-13.7 31.29,-22.12 48.02,-26.81 -4.12,11.35 -5.88,27.9 -13.85,39.18 -37.72,23.22 -8.94,92.86 -67.74,96.35 -14.16,0.95 -22.83,-10.85 -34.1,-16.24 -14.59,20.01 -46.51,19.16 -49.75,45.87 -15.74,12.33 -14.97,32.73 -25.64,47.77 -7.05,24.06 32.94,58.27 -8.22,66.09 1.03,11.52 10.93,21.95 2.93,33.22 -5.25,6.27 -14.26,11.07 -21.8,7.12 -14.98,-14.48 -1.69,-34.49 -14.03,-48.87 -11.52,-0.35 -12.36,-16.9 -25.19,-15.98 -5.6,18.98 -25.47,43.93 -4.12,59.81 9.9,10.47 21.21,19.66 24.69,32.56 -24.23,-3.21 -65.17,-3.03 -68.05,-35.02 l -11.7,4.82 c -3.39,-15.43 -22.48,-17.23 -29.85,-30.15 -10.04,-5.36 -25.33,-8.35 -22.29,-23.58 l 9.34,-13.77 c -12.76,-4.19 -12.38,-18.14 -15.83,-28.5 1.56,-13.95 8.38,-26.53 20.05,-35.15 -4.65,-19.28 -5.29,-40.98 -32.16,-36.58 -12.19,-24.51 -43.69,-39.46 -36.4,-72.39 0.5,-19.14 4.93,-41.96 24.41,-52.92 12.69,1.62 9.77,15.61 7.05,24.45 -18.14,8.42 -4.75,31.74 -3.87,45.76 l 5.04,3.98 c 23.14,-4.47 46.22,-6.41 69.36,-13.42 0.35,-12.75 -10.96,-20.68 -22.44,-21.03 4.54,-24.1 25.58,-3.1 36.4,-19.37 15.21,2.92 8.35,18.07 19.72,24.73 19.16,-4.55 38.51,-7.9 60.14,-4.76 7.15,-27.83 22.97,-47.81 41.46,-70.29 -11.09,-14.3 -32.65,-17.47 -45.02,-33.11 -63.7,-8.07 -133.24,11.7 -184.71,-21.56 -15.96,-23.39 -57.84,-33.44 -51.86,-66.44 -8.63,-10.43 -26.56,-10.96 -27.41,-26.25 17.83,-44.15 -42.56,-31.78 -48.05,-62.57 -10.22,-2.78 -25.54,-0.63 -26.46,-13.39 2.65,-3.77 1.52,-8.87 1.62,-13.98 l -20.08,-12.05 c -8.42,26.53 -0.39,59.92 -5.04,87.82 -3.8,48.38 -2.89,107.1 -5.32,151.63 13.64,13.18 -10.81,22.7 -11.2,35.41 -7.89,67.05 -33.68,194.61 -44.53,276.38 -5.39,40.06 -4.05,106.11 -4.05,106.11 l -6.48,-0.1 c 0,0 1.3,-64.65 -2.75,-105.83 l -45.48,-283.18 c -7.61,-2.75 -9.94,-10.47 -17.48,-17.02 6.66,-25.36 5.25,-52.18 4.72,-78.95 -2.6,12.54 -30.5,25.09 -30.64,40.59 -0.15,9.83 0.14,20.61 0.14,20.61 l 15.04,0.49 -0.46,7.72 -15.08,-0.18 -0.17,20.19 -7.82,0.07 0.31,-20.22 h -14.09 v -7.72 l 13.71,-0.11 c 0,0 0.56,-2.71 0.45,-19.2 -0.17,-16.52 -31.28,-43.47 -31.28,-43.47 -0.67,24.2 -3.17,59.19 8.98,82.47 0.95,10.22 -11.69,4.79 -11.94,14.98 -9.26,12.5 12.05,28.36 -7.43,38.04 l -79.2,-0.84 1.62,176.04 c 3.67,5.25 7.47,10.39 5.92,18.01 -5.39,10.03 -14.69,21.27 -28.71,20.92 -13.81,37.87 -10.08,90.22 -5.99,129.93 l -18.15,7.15 c -12.96,100.4 -41.53,203.98 -42.45,307.95 l 10.47,-0.11 0.21,4.65 -10.54,-0.1 -0.35,14.61 h -4.44 v -14.93 l -11.59,-0.07 0.21,-4.02 h 11.63 c -4.9,-104.74 -33.86,-205.6 -52.88,-304.32 -8.95,-1.48 -25.51,-3.24 -20.01,-17.08 8.73,-38.01 0.88,-80.36 -2.01,-114.89 -0.92,-12.79 -21.46,-6.94 -19.76,-22.16 l -3.77,-3.98 c 1.9,-22.86 -16.63,-45.09 -2.08,-65.07 l -4.16,-128.94 c -21.7,-1.83 -54.75,-5.28 -76.62,-0.77 -12.48,-14.38 5,-43.27 -17.8,-52.81 10.86,-21.39 9.66,-54.54 10.18,-82.76 -18.84,14.69 -29.73,23.57 -31.35,40.1 -1.13,11.23 -0.63,21.06 -0.63,21.06 l 14.93,0.03 -0.07,7.58 -14.3,0.24 0.21,19.45 -8.14,0.36 -0.24,-19.63 -15.19,-0.28 0.32,-7.61 15.11,-0.38 c 0,0 -0.24,-8.78 0,-20.62 -2.88,-14.93 -12.22,-24.79 -38.79,-40.97 3.18,24.34 -5.42,59.79 9.24,84.45 -6.66,10.01 -17.05,13.53 -23.65,23.57 -7.32,73.66 -23.99,187.84 -31.14,270.99 -5,57.6 -1.93,101.71 -1.93,101.71 l -8.32,0.07 -1.83,-101.75 -70.32,-279.2 c -1.02,-8.98 -21.35,-13.35 -9.51,-24.48 -0.5,-76.52 -16.28,-153.5 -14.16,-231.18 -25.69,4.33 -36.36,-26.49 -63.21,-25.96 -17.54,-11.98 -38.08,-7.47 -58.55,-6.7 -1.66,13.99 -17.01,13.57 -26.14,19.66 -23.82,-15.92 -47.03,-5.07 -74.02,-1.97 -12.75,-0.35 -18.39,19.9 -33.4,8 -17.72,-4.27 -40.09,-29.17 -56.12,-5.32 l -5.21,5 c -16.2,408.91 222.09,808.1 596.86,978.97 355.44,177.98 831.39,109.25 1125.91,-153.18 109.96,-95.23 193.41,-207.75 254.12,-327.29 62.36,-129.64 103.19,-270.14 106.22,-426.92 m -610.08,399.27 c -5.14,2.46 -14.02,-0.36 -14.16,6.02 l 12.58,5.43 c 2.63,-2.47 0.17,-7.65 1.58,-11.45 m -3.2,-24.28 -2.44,-3.9 -2.74,7.57 z m -72.83,49.04 c 4.02,-8.84 -8.48,-16.8 -14.68,-22.08 -3.88,1.16 -9.06,2.28 -10.47,7.32 -2.88,15.22 14.9,18.28 25.15,14.76 m -22.12,-32.51 c -7.47,-6.59 -4.37,-29.46 -17.37,-20.86 -12.97,8.56 -13.39,25.12 -6.09,36.78 l 7.54,6.66 c 7.75,-3.67 9.37,-16.39 15.92,-22.58 m 26.6,-134.48 c 2.64,-1.16 1.41,-3.8 1.51,-6.34 -1.19,-1.34 -2.39,-3.87 -6.3,-2.71 z m -68.8,41.54 c 1.12,6.41 11.44,5.39 14.05,1.62 z m -85.93,-787.95 c 4.34,-17.72 12.47,-35.38 30.58,-43.83 70.95,-24.87 142.93,8.95 196.58,55.07 34.81,34.1 64.36,74.4 50.27,125.06 -41.53,69.02 -141.51,33.19 -191.68,-1.34 -46.39,-30.58 -88.57,-77.65 -85.75,-134.96"
         style="fill:#193051;fill-opacity:1;fill-rule:nonzero;stroke:none"
         id="path12" />
      <path
         d="M 561.738,23.8086 H 507.52 L 155.504,457.559 h -1.758 V 273.672 c 0,-93.363 5.387,-142.344 8.945,-169.82 4.336,-31.1411 26.633,-42.6918 85.329,-45.3715 V 30.0508 H 27.5508 v 28.4297 c 44.4219,1.7617 65.7734,14.2304 70.2812,45.3715 3.492,27.476 8.844,76.457 8.844,169.82 V 449.57 c 0,56.86 0,78.282 -16.0666,99.559 -16.875,21.34 -38.9961,27.551 -75.461,30.191 v 28.539 H 169.77 l 343.039,-400 h 1.863 v 156.379 c 0,93.321 -5.426,142.192 -8.875,169.813 -4.512,31.027 -26.738,42.629 -85.363,45.269 v 28.539 H 640.863 V 579.32 c -44.492,-1.8 -65.84,-14.242 -70.242,-45.269 -3.492,-27.621 -8.883,-76.492 -8.883,-169.813 V 23.8086"
         style="fill:#193051;fill-opacity:1;fill-rule:nonzero;stroke:none"
         id="path14" />
      <path
         d="m 723.938,394.27 c 0,80.011 -5.993,85.191 -59.329,89.621 v 23.75 h 339.971 c 0.74,-12.539 4.47,-66.731 8.1,-115.551 l -26.668,-2.258 c -7.364,34.84 -15.469,55.559 -27.34,67.387 -11.836,12.621 -36.356,17.062 -80.004,17.062 h -28.859 c -28.215,0 -29.629,0 -29.629,-25.961 V 296.539 h 54.011 c 63.801,0 65.914,3.703 73.383,62.191 h 26.668 V 196.602 h -26.668 c -7.469,58.468 -9.582,62.148 -73.383,62.148 H 820.18 V 142.449 c 0,-54.0506 2.965,-69.5388 18.535,-77.0193 12.539,-5.9102 32.515,-5.9102 62.922,-5.9102 34.066,0 68.168,4.4727 84.375,22.2618 12.644,13.2773 24.588,38.4687 36.358,74.0197 l 26.67,-5.18 C 1044.53,121.73 1029.8,46.1719 1023.14,26.1914 H 657.207 v 23.707 c 60.738,4.4414 66.731,9.6211 66.731,89.5896 V 394.27"
         style="fill:#193051;fill-opacity:1;fill-rule:nonzero;stroke:none"
         id="path16" />
      <path
         d="m 1263.85,483.91 -26.67,-3 c -28.11,-3.621 -31.03,-9.539 -20.74,-46.64 l 80.81,-272.54 h 1.48 l 106.57,341.489 h 36.36 L 1568.31,161.73 h 1.45 c 27.47,94.032 57.81,217.051 68.16,261.481 11.1,46.609 7.4,54.738 -25.15,57.699 l -28.92,3 v 23.711 h 177.77 V 483.91 c -48.13,-5.961 -55.59,-8.879 -80.01,-79.269 -8.07,-22.961 -58.48,-179.211 -120.7,-383.6527 H 1521.7 L 1397.2,352.82 h -1.45 L 1286.15,20.9883 h -39.31 L 1123.18,409.859 c -20.75,65.911 -34.1,69.61 -72.57,74.051 v 23.711 h 213.24 V 483.91"
         style="fill:#193051;fill-opacity:1;fill-rule:nonzero;stroke:none"
         id="path18" />
      <path
         d="m 2242.98,604.359 c 159.13,0 284.51,-120.91 284.51,-293.277 C 2527.49,123.469 2397.67,0 2221.66,0 c -175.02,0 -290.64,130.629 -290.64,293.352 0,143 96.91,311.007 311.96,311.007 m -0.85,-564.4488 c 91.53,0 153.74,78.2808 153.74,242.7308 0,176.859 -62.21,281.699 -175.97,281.699 -92.44,0 -157.3,-91.52 -157.3,-246.149 0,-154.66 61.3,-278.2808 179.53,-278.2808"
         style="fill:#193051;fill-opacity:1;fill-rule:nonzero;stroke:none"
         id="path20" />
      <path
         d="m 2709.08,139.512 c 0,-79.9729 5.96,-85.1604 60.74,-89.5901 v -23.711 h -215.46 v 23.711 c 56.22,4.4297 62.25,9.6172 62.25,89.5901 v 254.777 c 0,79.973 -6.03,85.191 -59.33,89.621 v 23.711 h 200.74 c 62.92,0 102.91,-6.66 132.54,-25.18 29.63,-18.543 48.85,-53.312 48.85,-95.589 0,-64.364 -38.46,-103.641 -95.5,-125.172 10.36,-20.68 38.47,-71.059 59.96,-105.86 25.26,-39.281 45.27,-68.1012 58.51,-83.738 14.88,-16.2812 25.27,-24.4218 43.69,-30.3007 l -1.48,-22.2618 -26.63,1.4688 c -90.29,5.2226 -115.52,24.4219 -144.41,67.4336 -22.96,34.0661 -43.69,77.0081 -62.95,117.0271 -11.1,23.68 -21.42,29.59 -44.43,29.59 h -17.09 z m 0,122.988 h 21.43 c 30.4,0 50.48,5.102 68.27,19.23 28.82,22.93 39.91,57.739 39.91,94.032 0,73.379 -51.08,100.019 -92.58,100.019 -34.8,0 -37.03,-2.222 -37.03,-31.89 V 262.5"
         style="fill:#193051;fill-opacity:1;fill-rule:nonzero;stroke:none"
         id="path22" />
      <path
         d="m 3185.32,142.461 c 0,-54.0508 2.93,-70.3712 18.54,-77.0313 12.51,-5.1992 32.55,-5.9102 55.52,-5.9102 28.96,0 63.02,4.4414 80.04,22.9688 11.77,14.0625 23.71,37.7737 35.55,73.3207 l 26.67,-5.18 C 3397.13,121.73 3382.4,46.1719 3375.7,26.1992 h -353.28 v 23.711 c 60.73,4.4296 66.58,9.6093 66.58,89.5898 v 254.77 c 0,80.011 -5.85,85.191 -62.13,89.628 v 23.743 h 222.18 v -23.743 c -57.77,-4.437 -63.73,-9.617 -63.73,-89.628 V 142.461"
         style="fill:#193051;fill-opacity:1;fill-rule:nonzero;stroke:none"
         id="path24" />
      <path
         d="m 3488.97,394.27 c 0,80.011 -5.87,85.191 -59.21,89.621 v 23.75 h 339.97 c 0.73,-12.539 4.47,-66.731 8.09,-115.551 l -26.63,-2.258 c -7.4,34.84 -15.57,55.559 -27.37,67.387 -11.94,12.621 -36.32,17.062 -79.97,17.062 h -28.97 c -28.1,0 -29.63,0 -29.63,-25.961 V 296.539 h 54.19 c 63.67,0 65.84,3.703 73.21,62.191 h 26.71 V 196.602 h -26.71 c -7.37,58.468 -9.54,62.148 -73.21,62.148 h -54.19 V 142.449 c 0,-54.0506 3.04,-69.5388 18.65,-77.0193 12.47,-5.9102 32.48,-5.9102 62.85,-5.9102 34.1,0 68.24,4.4727 84.44,22.2618 12.58,13.2773 24.42,38.4687 36.36,74.0197 l 26.63,-5.18 c -4.47,-28.891 -19.23,-104.4491 -26,-124.4296 h -365.86 v 23.707 c 60.78,4.4414 66.65,9.6211 66.65,89.5896 V 394.27"
         style="fill:#193051;fill-opacity:1;fill-rule:nonzero;stroke:none"
         id="path26" />
      <path
         d="m 4100.07,49.9102 19.24,2.9609 c 27.44,3.7578 31.1,11.8281 18.52,43.6797 -9.65,24.4102 -23.71,62.9882 -34.8,90.3592 H 3971.9 c -8.8,-21.48 -18.46,-54.039 -28.15,-85.93 -11.05,-37.0191 -9.58,-45.148 24.38,-48.8902 l 18.57,-2.1796 v -23.711 h -167.34 v 23.711 c 44.35,5.1679 54.08,8.8711 80.01,75.5198 l 149.58,380.699 36.26,10.391 48.93,-137.75 c 31.1,-88.141 63.73,-176.321 91.84,-251.122 25.9,-69.5777 37.84,-73.3082 76.98,-77.7378 V 26.1992 H 4100.07 Z M 3982.33,224.68 h 108.16 l -53.38,152.609 h -2.22 L 3982.33,224.68"
         style="fill:#193051;fill-opacity:1;fill-rule:nonzero;stroke:none"
         id="path28" />
      <path
         d="m 4768.16,21 h -45.19 l -293.29,361.43 h -1.49 V 229.141 c 0,-77.789 4.41,-118.551 7.34,-141.4105 3.73,-26.0117 22.29,-35.6289 71.16,-37.8399 V 26.2188 H 4323 v 23.6718 c 37.03,1.5078 54.85,11.8282 58.48,37.8399 3.1,22.8595 7.48,63.6215 7.48,141.4105 V 375.77 c 0,47.449 0,65.128 -13.33,82.929 -14.19,17.793 -32.65,23.031 -62.98,25.223 v 23.707 h 128.82 L 4727.44,174.32 h 1.48 v 130.309 c 0,77.801 -4.51,118.59 -7.44,141.562 -3.73,25.86 -22.15,35.539 -71.13,37.731 v 23.707 h 183.73 v -23.707 c -37.1,-1.512 -54.89,-11.871 -58.59,-37.731 -2.88,-22.972 -7.33,-63.761 -7.33,-141.562 V 21"
         style="fill:#193051;fill-opacity:1;fill-rule:nonzero;stroke:none"
         id="path30" />
      <path
         d="m 4896.31,168.391 c 12.54,-40.75 54.77,-119.9926 128.09,-119.9926 48.9,0 76.31,36.3321 76.31,78.5316 0,50.379 -27.41,74.789 -83.67,99.211 l -14.87,6.73 c -62.22,27.371 -114.78,70.277 -114.78,140.668 0,79.27 61.52,145.191 164.42,145.191 22.23,0 45.9,-2.96 68.17,-10.371 11.84,-3.699 22.97,-6.66 31.82,-9.609 2.96,-26.699 8.17,-59.988 15.6,-104.5 l -26.71,-5.102 c -14.83,43.692 -37.02,96.25 -100.05,96.25 -45.12,0 -71.79,-32.589 -71.79,-74.097 0,-37.762 27.44,-64.391 80.74,-87.36 l 23.71,-10.359 c 59.29,-25.23 114.07,-64.402 114.07,-144.402 0,-87.4183 -68.94,-154.1683 -175.58,-154.1683 -27.38,0 -54.75,5.25 -74.8,11.9766 -20.74,6.6211 -34.73,12.543 -44.42,16.9805 -5.95,19.2031 -14.76,70.3832 -22.97,114.8402 l 26.71,9.582"
         style="fill:#193051;fill-opacity:1;fill-rule:nonzero;stroke:none"
         id="path32" />
      <path
         d="m 321.117,1077.15 c -6.551,28.82 -11.937,43.83 -19.164,53.41 -9.613,14.45 -19.836,18.67 -64.859,18.67 h -42.59 V 853.898 c 0,-47.449 4.793,-53.468 61.828,-57.066 V 780.02 H 84.0938 v 16.812 c 54.6052,3.598 59.4292,9.617 59.4292,57.066 v 295.332 h -37.234 c -49.7812,0 -61.832,-4.82 -69.6484,-18.67 -7.1875,-10.17 -12.0508,-26.98 -19.2031,-53.41 H 0 c 3.02734,36.01 6.02734,75.04 7.22266,108.06 H 19.2344 c 8.4219,-13.82 16.207,-14.98 33.0117,-14.98 H 289.379 c 16.168,0 21.031,3.63 30.578,14.98 h 12.609 c 0,-27.59 3,-71.45 5.993,-106.22 l -17.442,-1.84"
         style="fill:#193051;fill-opacity:1;fill-rule:nonzero;stroke:none"
         id="path34" />
      <path
         d="m 782.715,1153.42 c -49.246,-4.2 -54.004,-7.22 -54.004,-57.04 V 853.891 c 0,-50.411 4.758,-53.469 53.406,-57.032 V 780.051 H 621.223 v 16.808 c 51.011,3.563 56.472,6.621 56.472,57.032 v 120.07 H 473.047 v -120.07 c 0,-49.809 4.824,-53.469 54.004,-57.032 V 780.051 H 369.152 v 16.808 c 48.02,3.563 52.813,6.621 52.813,57.032 v 242.489 c 0,50.38 -4.793,52.84 -53.977,57.04 v 16.8 h 155.469 v -16.8 c -45.586,-4.2 -50.41,-7.22 -50.41,-57.04 v -97.232 h 204.648 v 97.232 c 0,49.82 -4.754,52.84 -51.644,57.04 v 16.8 h 156.664 v -16.8"
         style="fill:#193051;fill-opacity:1;fill-rule:nonzero;stroke:none"
         id="path36" />
      <path
         d="m 1124.28,874.898 c -3.6,-19.839 -15.61,-76.168 -21,-94.847 H 813.902 v 16.808 c 54.645,4.161 59.465,9.02 59.465,57.602 v 238.929 c 0,54.05 -4.82,55.84 -51.683,60.03 v 16.81 h 267.786 c 0,-15.05 3,-55.84 4.83,-86.46 l -17.44,-2.99 c -5.46,25.22 -11.38,38.43 -19.2,51.65 -8.42,12.58 -24.66,16.8 -67.89,16.8 h -45.59 c -18.598,0 -19.801,-1.24 -19.801,-19.27 V 993.762 h 56.441 c 54.01,0 57,4.828 64.82,44.958 h 17.37 V 923.512 h -17.37 c -7.82,43.226 -12.01,46.828 -64.257,46.828 H 924.379 V 856.93 c 0,-28.25 3.594,-40.828 14.449,-48.649 11.344,-7.261 32.34,-7.859 62.352,-7.859 45.59,0 62.43,4.828 75.68,20.43 10.18,12.058 21.59,32.449 29.41,56.437 l 18.01,-2.391"
         style="fill:#193051;fill-opacity:1;fill-rule:nonzero;stroke:none"
         id="path38" />
      <path
         d="m 1686.64,1153.42 c -36.01,-2.43 -49.82,-10.86 -52.81,-35.48 -1.76,-16.17 -3,-41.99 -3,-97.2 v -49.248 c 0,-70.812 -10.82,-121.832 -45.59,-158.433 -27.65,-28.848 -67.88,-41.418 -107.48,-41.418 -34.81,0 -69.58,8.41 -96.04,28.781 -36,27.648 -52.74,72.668 -52.74,142.887 v 149.441 c 0,54.01 -4.86,56.47 -52.31,60.67 v 16.8 h 155.46 v -16.8 c -47.41,-3.03 -52.17,-6.66 -52.17,-60.67 V 956.52 c 0,-96.629 38.37,-151.879 112.81,-151.879 86.49,0 113.44,72.039 113.44,171.039 v 45.06 c 0,55.21 -1.8,80.44 -4.16,99.07 -3.63,23.39 -16.21,30.58 -58.24,33.61 v 16.8 h 142.83 v -16.8"
         style="fill:#1b3052;fill-opacity:1;fill-rule:nonzero;stroke:none"
         id="path40" />
      <path
         d="m 2121.83,1153.42 c -33.62,-1.8 -47.99,-9.62 -50.38,-36.04 -2.47,-18.01 -3.63,-44.99 -3.63,-100.83 V 774.621 h -18.64 l -255.63,314.569 h -1.23 V 938.48 c 0,-55.199 1.8,-84.019 3.59,-101.39 2.96,-30.649 16.81,-37.801 57.6,-40.231 v -16.808 h -142.22 v 16.808 c 34.77,1.871 49.81,9.582 52.81,39.032 1.76,18.57 3.6,47.39 3.6,102.589 v 132.11 c 0,43.79 -1.21,46.22 -12.06,60.6 -11.94,15.01 -25.19,19.8 -53.4,22.23 v 16.8 h 88.84 l 250.35,-301.361 h 1.76 v 147.691 c 0,55.2 -2.36,82.82 -4.23,99.63 -2.89,27.02 -17.36,34.81 -58.79,37.24 v 16.8 h 141.66 v -16.8"
         style="fill:#193051;fill-opacity:1;fill-rule:nonzero;stroke:none"
         id="path42" />
      <path
         d="m 2150.67,780.039 v 16.813 c 49.25,3.589 54.01,7.218 54.01,58.199 v 240.119 c 0,51.02 -4.76,54.65 -54.01,58.24 v 16.84 h 159.06 v -16.84 c -49.18,-3.59 -54.04,-7.22 -54.04,-58.24 V 855.051 c 0,-51.582 4.86,-54.61 54.04,-58.199 v -16.813 h -159.06"
         style="fill:#193051;fill-opacity:1;fill-rule:nonzero;stroke:none"
         id="path44" />
      <path
         d="m 2736.5,1153.42 c -40.87,-4.79 -48.58,-10.22 -71.45,-64.23 -16.2,-39.03 -79.86,-191.51 -124.82,-315.729 h -18.63 c -40.27,109.82 -89.45,239.469 -124.26,326.519 -17.4,45.02 -27.02,49.81 -62.42,52.84 v 17.4 h 147.04 v -16.8 c -42.59,-4.79 -44.98,-8.98 -35.4,-35.48 15.57,-42.59 59.4,-159.03 99.7,-261.659 h 1.09 c 30.09,75.008 75.68,192.109 94.91,251.519 11.34,34.76 7.75,39.63 -40.83,45.62 v 16.8 h 135.07 v -16.8"
         style="fill:#193051;fill-opacity:1;fill-rule:nonzero;stroke:none"
         id="path46" />
      <path
         d="m 3065.36,874.898 c -3.59,-19.839 -15.57,-76.168 -20.99,-94.847 h -289.31 v 16.808 c 54.6,4.161 59.43,9.02 59.43,57.602 v 238.929 c 0,54.05 -4.83,55.84 -51.61,60.03 v 16.81 h 267.71 c 0,-15.05 2.99,-55.84 4.79,-86.46 l -17.44,-2.99 c -5.39,25.22 -11.45,38.43 -19.24,51.65 -8.35,12.58 -24.55,16.8 -67.74,16.8 h -45.63 c -18.59,0 -19.86,-1.24 -19.86,-19.27 V 993.762 h 56.43 c 54.09,0 57.05,4.828 64.87,44.958 h 17.36 V 923.512 h -17.36 c -7.82,43.226 -12.05,46.828 -64.23,46.828 h -57.07 V 856.93 c 0,-28.25 3.59,-40.828 14.4,-48.649 11.46,-7.261 32.42,-7.859 62.43,-7.859 45.66,0 62.47,4.828 75.64,20.43 10.21,12.058 21.63,32.449 29.45,56.437 l 17.97,-2.391"
         style="fill:#193051;fill-opacity:1;fill-rule:nonzero;stroke:none"
         id="path48" />
      <path
         d="m 3446.61,775.242 c -7.25,0 -13.85,0 -21.03,0.567 -45.06,2.472 -70.32,15.64 -97.27,54.632 -21,29.457 -42.63,66.629 -60.6,96.079 -10.25,16.812 -20.4,23.992 -51.65,23.992 h -19.19 v -95.481 c 0,-50.972 5.39,-54.601 53.4,-58.191 v -16.809 h -157.83 v 16.809 c 49.19,3.59 54.65,7.219 54.65,58.191 v 241.329 c 0,51.05 -4.86,52.88 -51.72,57.04 v 16.84 h 148.96 c 43.75,0 73.16,-5.42 96.03,-20.43 23.96,-15.64 39.56,-42.6 39.56,-78.67 0,-51.55 -31.81,-83.429 -76.24,-102.589 10.19,-19.789 35.44,-60.071 53.45,-87.051 21.59,-31.219 33.57,-46.859 48.61,-62.461 16.21,-18.008 29.95,-24.559 43.23,-28.16 z m -220.89,195.11 c 30.51,0 50.38,4.789 65.35,16.796 23.43,17.972 33.08,42.032 33.08,74.442 0,64.79 -42.69,88.82 -88.28,88.82 -17.4,0 -27.63,-2.4 -32.41,-5.99 -4.19,-3 -6.59,-10.25 -6.59,-26.46 V 970.352 h 28.85"
         style="fill:#193051;fill-opacity:1;fill-rule:nonzero;stroke:none"
         id="path50" />
      <path
         d="m 3662.58,1078.98 c -10.78,38.37 -26.36,79.79 -78.61,79.79 -46.18,0 -66.58,-33.57 -66.58,-66.01 0,-43.76 28.82,-64.23 76.14,-88.82 46.88,-24.018 103.85,-52.21 103.85,-119.46 0,-63.031 -53.34,-113.441 -133.27,-113.441 -24.56,0 -43.76,4.793 -58.8,9.012 -14.98,5.39 -24.03,9.578 -29.38,12.578 -4.8,12.621 -12.62,64.301 -16.24,93.051 l 17.44,4.23 c 9.61,-36.609 36.6,-97.281 98.43,-97.281 44.99,0 72.04,28.223 72.04,72.051 0,44.429 -33.01,65.422 -78.03,89.449 -38.41,20.43 -99.03,50.411 -99.03,118.271 0,57.56 46.18,106.81 123.69,106.81 27.59,0 52.77,-6.59 75.6,-13.78 2.33,-21.63 5.42,-45.05 10.18,-82.86 l -17.43,-3.59"
         style="fill:#193051;fill-opacity:1;fill-rule:nonzero;stroke:none"
         id="path52" />
      <path
         d="m 3726.26,780.039 v 16.813 c 49.22,3.589 53.97,7.218 53.97,58.199 v 240.119 c 0,51.02 -4.75,54.65 -53.97,58.24 v 16.84 h 159.03 v -16.84 c -49.22,-3.59 -54.08,-7.22 -54.08,-58.24 V 855.051 c 0,-51.582 4.86,-54.61 54.08,-58.199 v -16.813 h -159.03"
         style="fill:#193051;fill-opacity:1;fill-rule:nonzero;stroke:none"
         id="path54" />
      <path
         d="m 4237.59,1077.15 c -6.55,28.82 -12.01,43.83 -19.2,53.41 -9.58,14.45 -19.86,18.67 -64.79,18.67 h -42.66 V 853.898 c 0,-47.449 4.83,-53.468 61.86,-57.066 V 780.02 h -172.27 v 16.812 c 54.68,3.598 59.43,9.617 59.43,57.066 v 295.332 h -37.2 c -49.85,0 -61.86,-4.82 -69.64,-18.67 -7.19,-10.17 -11.99,-26.98 -19.24,-53.41 h -17.41 c 3.03,36.01 5.99,75.04 7.29,108.06 h 11.91 c 8.38,-13.82 16.21,-14.98 33.05,-14.98 h 237.09 c 16.21,0 21.04,3.63 30.62,14.98 h 12.61 c 0,-27.59 2.96,-71.45 5.99,-106.22 l -17.44,-1.84"
         style="fill:#193051;fill-opacity:1;fill-rule:nonzero;stroke:none"
         id="path56" />
      <path
         d="m 4651.88,1153.42 c -41.46,-4.79 -48.08,-10.86 -71.51,-47.42 -26.99,-43.83 -47.38,-78.67 -76.2,-131.441 -7.79,-15.649 -9.66,-22.227 -9.66,-37.809 v -81.699 c 0,-50.41 4.83,-54.629 60.07,-58.192 v -16.808 h -169.84 v 16.808 c 53.37,3.563 58.8,7.223 58.8,58.192 v 79.879 c 0,11.968 -2.4,17.402 -12.58,35.402 -21.04,37.228 -42.63,76.238 -75.64,132.038 -24.03,40.83 -30.61,47.42 -66.69,51.05 v 16.8 h 143.49 v -16.8 c -42.59,-5.43 -41.43,-12.58 -29.98,-32.45 25.19,-48.02 54.57,-97.2 80.43,-142.251 22.2,39.621 54.61,98.421 71.41,135.031 13.81,30.05 11.98,34.88 -34.81,39.67 v 16.8 h 132.71 v -16.8"
         style="fill:#193051;fill-opacity:1;fill-rule:nonzero;stroke:none"
         id="path58" />
      <path
         d="m 4807.22,866.48 c 0,78.079 41.43,137.47 91.28,163.86 21.56,11.41 46.19,19.24 64.82,19.24 49.81,0 79.8,-34.18 79.8,-93.65 0,-51.61 -22.16,-110.45 -64.18,-145.25 -25.86,-21.598 -58.88,-37.84 -92.48,-37.84 -56.98,0 -79.24,45.031 -79.24,93.64 m 120.07,-66.05 c 32.41,13.84 65.38,77.5 65.38,154.269 0,48.651 -21,72.041 -48.55,72.041 -9.05,0 -16.2,-2.36 -22.86,-5.43 -23.39,-10.14 -63.62,-59.388 -63.62,-151.79 0,-44.442 18.6,-72.688 50.48,-72.688 7.11,0 13.14,1.227 19.17,3.598"
         style="fill:#193051;fill-opacity:1;fill-rule:nonzero;stroke:none"
         id="path60" />
      <path
         d="m 5132.5,1038.73 c 9.09,45.62 23.46,90.64 50.48,120.66 27.65,30.64 61.76,48.05 85.82,48.05 21,0 36.61,-15.04 36,-25.82 0,-8.99 -8.37,-19.8 -15,-24.59 -4.83,-3.6 -10.78,-4.19 -14.98,0.59 -12.64,13.19 -25.22,21 -37.87,21 -22.16,0 -40.15,-28.82 -58.23,-139.89 h 67.89 l -12.62,-18.57 -60.03,-6.02 c -10.82,-66.058 -17.4,-101.429 -30.65,-168.05 -20.96,-103.258 -43.15,-148.25 -76.2,-182.488 -26.39,-28.18 -51.61,-37.84 -67.81,-37.84 -17.41,0 -37.78,12.047 -37.24,25.859 0,7.75 7.26,18 16.2,25.188 4.83,4.23 7.82,3.562 11.45,0 9.59,-9.059 26.99,-14.977 37.84,-14.977 10.15,0 19.73,4.758 25.71,12.02 7.86,8.98 22.31,34.168 42.07,150.636 14.38,82.223 22.27,132.012 31.85,190.882 h -49.25 l -1.8,6.55 18,16.81 h 38.37"
         style="fill:#193051;fill-opacity:1;fill-rule:nonzero;stroke:none"
         id="path62" />
    </g>
  </g>
</svg>
